<?xml version="1.0" encoding="UTF-8"?>
<svg width="18px" height="13px" viewBox="0 0 18 13" version="1.1" xmlns="http://www.w3.org/2000/svg" xmlns:xlink="http://www.w3.org/1999/xlink">
    <!-- Generator: Sketch 48.1 (47250) - http://www.bohemiancoding.com/sketch -->
    <title>Combined Shape</title>
    <desc>Created with Sketch.</desc>
    <defs></defs>
    <g id="iPhone-X" stroke="none" stroke-width="1" fill="none" fill-rule="evenodd" transform="translate(-343.000000, -718.000000)">
        <path d="M346,726.375 L343,724.5 L346,722.625 L346,719 C346,718.447715 346.447715,718 347,718 L360,718 C360.552285,718 361,718.447715 361,719 L361,730 C361,730.552285 360.552285,731 360,731 L347,731 C346.447715,731 346,730.552285 346,730 L346,726.375 Z M349,723 L349,726 L352,726 L352,723 L349,723 Z M355,723 L355,726 L358,726 L358,723 L355,723 Z" id="Combined-Shape" fill="#98AAD0"></path>
    </g>
</svg>